# xmcd
#
# Track frame offsets: 
#        150
#        12187
#        28277
#        44445
#        50792
#        64317
#        84562
#        104232
#        113820
#        126010
#        135732
#        149305
#        167045
#
# Disc length: 2637 seconds
#
# Revision: 1
# Processed by: cddbd v1.5.1PL2 Copyright (c) Steve Scherf et al.
# Submitted via: ExactAudioCopy v0.95a5
#
DISCID=c30a4b0d
DTITLE=Adam Stemple - 3 Solid Blows to the Head
DYEAR=1999
DGENRE=Rock and Roll
TTITLE0=Black on Black
TTITLE1=Fries and the Check
TTITLE2=The Ocean Doesn't Listen
TTITLE3=Coals of Reason
TTITLE4=Across the Street
TTITLE5=Love is Light
TTITLE6=Fool am I
TTITLE7=He Was Doing O.K.
TTITLE8=Killjoy
TTITLE9=Trouble
TTITLE10=Gene Wolfe Pastiche #12
TTITLE11=Fool's Gold
TTITLE12=3 Solid Blows to the Head
EXTD=
EXTT0=
EXTT1=
EXTT2=
EXTT3=
EXTT4=
EXTT5=
EXTT6=
EXTT7=
EXTT8=
EXTT9=
EXTT10=
EXTT11=
EXTT12=
PLAYORDER=
